<?xml version="1.0" encoding="utf-8"?>
<!-- Generator: Adobe Illustrator 16.0.4, SVG Export Plug-In . SVG Version: 6.00 Build 0)  -->
<!DOCTYPE svg PUBLIC "-//W3C//DTD SVG 1.1//EN" "http://www.w3.org/Graphics/SVG/1.1/DTD/svg11.dtd">
<svg version="1.1" id="Layer_1" xmlns="http://www.w3.org/2000/svg" xmlns:xlink="http://www.w3.org/1999/xlink" x="0px" y="0px"
	 width="230px" height="60px" viewBox="0 0 230 60" enable-background="new 0 0 230 60" xml:space="preserve">
<g>
	<path fill="#35373C" d="M103.659,15.003c2.13,0.002,4.258,0.004,6.387,0c0.009,3.885,0.005,7.769,0.014,11.654
		c0.766-0.946,1.698-1.777,2.827-2.263c1.93-0.878,4.25-0.896,6.181-0.014c1.424,0.649,2.528,1.882,3.15,3.306
		c0.614,1.375,0.866,2.886,0.913,4.384c0.002,4.156,0,8.312,0.001,12.469c-2.132,0-4.265,0.003-6.396-0.001
		c-0.01-3.812,0.014-7.627,0-11.44c-0.047-1.236-0.252-2.615-1.202-3.501c-1.291-1.124-3.478-0.92-4.578,0.378
		c-0.528,0.615-0.895,1.394-0.891,2.214c-0.001,4.117,0.02,8.232,0.009,12.347c-2.144,0.006-4.29,0.005-6.433,0.002
		C103.636,34.692,103.646,24.849,103.659,15.003L103.659,15.003z"/>
	<path fill="#35373C" d="M168.748,15.002c2.129,0.006,4.257,0.002,6.385,0c0.011,8.96,0.023,17.919,0.019,26.879
		c-0.012,0.891,0.024,1.782-0.019,2.672c-2.135-0.036-4.273-0.005-6.41-0.016C168.715,34.693,168.739,24.848,168.748,15.002
		L168.748,15.002z"/>
	<path fill="#35373C" d="M35.286,16.503c2.845-0.012,5.689,0.002,8.534-0.007c0.799,2.733,1.614,5.46,2.417,8.191
		c1.026,3.415,1.896,6.875,2.593,10.372c0.071,0.294,0.065,0.626,0.268,0.87c0.806-3.371,1.68-6.729,2.693-10.045
		c0.994-3.13,2.012-6.253,3.001-9.384c2.798-0.005,5.598,0.005,8.396-0.005c0.53,9.345,1.016,18.695,1.545,28.041
		c-2.09,0.007-4.178,0.003-6.269,0.003c-0.311-7.426-0.679-14.853-0.715-22.285c-0.094,0.244-0.169,0.494-0.229,0.749
		c-1.339,5.246-3.089,10.371-4.688,15.542c-0.578,1.844-1.155,3.689-1.737,5.531c-1.679,0.002-3.357-0.002-5.037,0.002
		c-0.946-3.317-1.856-6.645-2.787-9.967c-1.115-3.918-2.011-7.894-2.809-11.887c-0.083,0.742-0.086,1.488-0.114,2.232
		c-0.218,6.7-0.565,13.393-0.926,20.086c-1.985-0.006-3.97,0.002-5.956-0.006C34.067,35.191,34.695,25.847,35.286,16.503
		L35.286,16.503z"/>
	<path fill="#35373C" d="M92.81,23.971c2.71-0.518,5.579-0.166,8.109,0.931c-0.253,1.481-0.71,2.921-1.047,4.387
		c-1.289-0.613-2.685-1.029-4.114-1.127c-0.707-0.033-1.458,0.029-2.079,0.399c-0.521,0.313-0.82,0.979-0.641,1.57
		c0.145,0.536,0.636,0.867,1.099,1.113c1.518,0.786,3.25,1.086,4.709,2.001c1.243,0.719,2.308,1.834,2.722,3.233
		c0.533,1.793,0.327,3.854-0.759,5.407c-0.892,1.271-2.278,2.116-3.748,2.564c-2.082,0.633-4.305,0.653-6.449,0.393
		c-1.482-0.21-2.955-0.601-4.285-1.297c0.318-1.345,0.688-2.678,1.008-4.022c0.054-0.158,0.052-0.355,0.169-0.484
		c1.675,0.861,3.533,1.403,5.42,1.477c0.771-0.023,1.621-0.05,2.258-0.54c0.551-0.421,0.631-1.241,0.354-1.841
		c-0.223-0.469-0.696-0.73-1.137-0.957c-1.051-0.514-2.204-0.766-3.262-1.258c-1.458-0.655-2.866-1.611-3.675-3.027
		c-0.935-1.653-0.759-3.77,0.121-5.408C88.635,25.557,90.7,24.375,92.81,23.971L92.81,23.971z"/>
	<path fill="#35373C" d="M184.438,24.057c1.85-0.469,3.825-0.492,5.679-0.029c2.131,0.53,3.993,1.993,5.029,3.929
		c1.382,2.56,1.652,5.618,1.156,8.452c-4.392-0.036-8.783-0.05-13.175-0.054c0.054,1.149,0.736,2.214,1.7,2.819
		c1.406,0.913,3.146,1.113,4.784,1.035c1.685-0.037,3.354-0.341,4.955-0.86c0.28,1.441,0.567,2.881,0.851,4.322
		c-1.687,0.693-3.492,1.061-5.306,1.203c-2.676,0.239-5.489,0.095-7.94-1.103c-1.766-0.84-3.238-2.284-4.088-4.049
		c-0.901-1.844-1.179-3.942-1.061-5.976c0.161-2.404,1.006-4.798,2.575-6.65C180.838,25.606,182.562,24.537,184.438,24.057
		L184.438,24.057z M185.086,28.439c-1.219,0.763-1.857,2.185-2.023,3.572c2.51-0.006,5.02,0,7.529-0.004
		c-0.023-1.067-0.29-2.185-1.002-3.011C188.506,27.718,186.47,27.595,185.086,28.439L185.086,28.439z"/>
	<path fill="#35373C" d="M145.74,15.003c2.126,0.002,4.254,0.007,6.381-0.003c0.02,3.844,0.011,7.688,0.018,11.531
		c0.111-0.076,0.227-0.154,0.311-0.265c1.229-1.566,3.215-2.371,5.164-2.502c1.969-0.179,4.023,0.319,5.601,1.536
		c1.812,1.363,2.91,3.498,3.36,5.688c0.396,1.962,0.386,4.003,0.016,5.969c-0.424,2.175-1.448,4.281-3.118,5.77
		c-1.653,1.499-3.894,2.342-6.126,2.266c-1.812,0.021-3.672-0.596-4.971-1.888c-0.43-0.407-0.751-0.905-1.098-1.38
		c-0.123,0.94-0.146,1.889-0.284,2.826c-1.814-0.032-3.629,0.015-5.441-0.023c0.184-2.902,0.183-5.809,0.17-8.715
		C145.721,28.874,145.734,21.938,145.74,15.003L145.74,15.003z M155.342,28.681c-1.768,0.328-3.102,1.99-3.184,3.763
		c-0.031,1.21-0.004,2.422-0.008,3.633c0.01,1.357,0.773,2.675,1.939,3.367c1.179,0.722,2.737,0.675,3.938,0.031
		c1.012-0.541,1.658-1.572,1.986-2.643c0.404-1.362,0.445-2.823,0.211-4.221c-0.199-1.071-0.627-2.144-1.425-2.911
		C157.908,28.82,156.563,28.466,155.342,28.681L155.342,28.681z"/>
	<path fill="#35373C" d="M67.56,25.573c1.927-1.038,4.097-1.564,6.266-1.76c2.374-0.193,4.904-0.08,7.033,1.099
		c1.523,0.829,2.636,2.297,3.152,3.942c0.403,1.241,0.54,2.556,0.523,3.86c0.005,2.582-0.001,5.165,0.005,7.747
		c0.046,1.361,0.083,2.727,0.339,4.067c-1.913,0.017-3.827,0.017-5.739,0.001c-0.257-0.644-0.266-1.38-0.441-2.057
		c-1.45,1.703-3.707,2.579-5.919,2.516c-2.025,0.075-4.114-0.764-5.373-2.382c-2.056-2.579-1.667-6.732,0.831-8.886
		c1.92-1.686,4.507-2.33,6.991-2.61c0.962-0.108,1.93-0.15,2.898-0.135c0.068-0.812-0.23-1.689-0.925-2.159
		c-1.01-0.712-2.31-0.732-3.496-0.674c-1.728,0.146-3.447,0.617-4.956,1.48C68.339,28.276,67.97,26.918,67.56,25.573L67.56,25.573z
		 M74.691,35.412c-0.59,0.207-1.172,0.493-1.603,0.955c-0.756,0.781-0.87,2.062-0.369,3.008c0.354,0.698,1.141,1.064,1.894,1.123
		c1.749,0.177,3.628-1.181,3.711-3c0.036-0.853,0.01-1.709,0.012-2.563C77.109,34.944,75.865,35.033,74.691,35.412L74.691,35.412z"
		/>
	<path fill="#35373C" d="M126.284,25.575c2.461-1.323,5.297-1.831,8.07-1.838c2.151,0.013,4.435,0.416,6.152,1.798
		c1.389,1.095,2.207,2.767,2.528,4.478c0.2,1.013,0.238,2.052,0.231,3.083c0.002,2.028,0.002,4.055,0.002,6.082
		c-0.009,1.786,0.013,3.588,0.336,5.352c-1.935,0.012-3.872,0.024-5.806-0.006c-0.107-0.688-0.248-1.37-0.369-2.056
		c-1.423,1.664-3.61,2.553-5.782,2.521c-1.914,0.091-3.904-0.591-5.208-2.029c-2.35-2.477-2.113-6.838,0.396-9.12
		c1.628-1.524,3.842-2.215,5.998-2.579c1.332-0.21,2.682-0.308,4.032-0.284c0.046-0.811-0.238-1.686-0.934-2.158
		c-0.976-0.68-2.223-0.734-3.37-0.685c-1.778,0.122-3.54,0.619-5.099,1.486C127.075,28.27,126.693,26.919,126.284,25.575
		L126.284,25.575z M133.427,35.41c-0.765,0.248-1.513,0.684-1.94,1.388c-0.452,0.779-0.46,1.787-0.046,2.585
		c0.307,0.562,0.886,0.936,1.507,1.057c1.681,0.374,3.596-0.712,4.023-2.401c0.184-1.024,0.075-2.07,0.096-3.104
		C135.842,34.944,134.6,35.033,133.427,35.41L133.427,35.41z"/>
</g>
</svg>
