<?xml version="1.0" encoding="UTF-8" standalone="no"?>
<svg width="170px" height="40px" viewBox="0 0 170 40" version="1.1" xmlns="http://www.w3.org/2000/svg" xmlns:xlink="http://www.w3.org/1999/xlink">
    <!-- Generator: Sketch 39.1 (31720) - http://www.bohemiancoding.com/sketch -->
    <title>Salesforce</title>
    <desc>Created with Sketch.</desc>
    <defs></defs>
    <g id="Page-1" stroke="none" stroke-width="1" fill="none" fill-rule="evenodd">
        <g id="Salesforce" fill="#FFFFFF">
            <g id="svg3671">
                <g id="layer1" transform="translate(-0.000002, 0.170550)">
                    <g id="g3007" transform="translate(8.492204, 19.376768) scale(1, -1) translate(-8.492204, -19.376768) translate(0.233095, 8.364622)">
                        <path d="M0.443967134,3.19623017 C0.303298977,2.8286637 0.495119192,2.75195418 0.539877242,2.68802957 C0.961881713,2.38119148 1.39028019,2.16065159 1.82187567,1.91454187 C4.11093023,0.699974407 6.27210465,0.345192858 8.53238617,0.345192858 C13.1360713,0.345192858 15.9941925,2.79350517 15.9941925,6.73445697 L15.9941925,6.81116649 C15.9941925,10.4548689 12.7684159,11.7781082 9.74085352,12.733781 L9.34762208,12.8616302 C7.06496153,13.6031556 5.09560733,14.2424016 5.09560733,15.7446298 L5.09560733,15.8245356 C5.09560733,17.1094201 6.24652862,18.0555042 8.03045661,18.0555042 C10.0125988,18.0555042 12.3655935,17.3970808 13.8809731,16.5596685 C13.8809731,16.5596685 14.3253566,16.2720078 14.4884038,16.7034989 C14.5779199,16.9336274 15.3452008,18.9983921 15.4251259,19.2221282 C15.511445,19.4650417 15.3579888,19.6440306 15.2013356,19.7399175 C13.4717567,20.7914772 11.080398,21.510629 8.60591725,21.510629 L8.14554874,21.5074328 C3.93189803,21.5074328 0.990654745,18.9632336 0.990654745,15.316335 L0.990654745,15.2396254 C0.990654745,11.3945606 4.23561337,10.1480308 7.27596377,9.27865618 L7.76510531,9.12843336 C9.98062879,8.44763634 11.8892399,7.86272621 11.8892399,6.30296589 L11.8892399,6.22625637 C11.8892399,4.80073771 10.6488025,3.7395893 8.6474783,3.7395893 C7.87060643,3.7395893 5.39292866,3.75557045 2.71703667,5.44637621 C2.39413931,5.63495379 2.2055161,5.77239168 1.95614982,5.9226145 C1.82507268,6.00571649 1.49578131,6.14954684 1.35191615,5.71485954 L0.443967134,3.19623017 L0.443967134,3.19623017 Z" id="path3009"></path>
                    </g>
                    <g id="g3011" transform="translate(75.888238, 19.376768) scale(1, -1) translate(-75.888238, -19.376768) translate(67.629128, 8.364622)">
                        <path d="M0.443967134,3.19623017 C0.303298977,2.8286637 0.495119192,2.75195418 0.539877242,2.68802957 C0.961881713,2.38119148 1.39028019,2.16065159 1.82187567,1.91454187 C4.11093023,0.699974407 6.27210465,0.345192858 8.53238617,0.345192858 C13.1360713,0.345192858 15.9941925,2.79350517 15.9941925,6.73445697 L15.9941925,6.81116649 C15.9941925,10.4548689 12.7684159,11.7781082 9.74085352,12.733781 L9.34762208,12.8616302 C7.06496153,13.6031556 5.09560733,14.2424016 5.09560733,15.7446298 L5.09560733,15.8245356 C5.09560733,17.1094201 6.24652862,18.0555042 8.03045661,18.0555042 C10.0125988,18.0555042 12.3655935,17.3970808 13.8809731,16.5596685 C13.8809731,16.5596685 14.3253566,16.2720078 14.4884038,16.7034989 C14.5779199,16.9336274 15.3452008,18.9983921 15.4251259,19.2221282 C15.511445,19.4650417 15.3579888,19.6440306 15.2013356,19.7399175 C13.4717567,20.7914772 11.080398,21.510629 8.60591725,21.510629 L8.14554874,21.5074328 C3.93189803,21.5074328 0.990654745,18.9632336 0.990654745,15.316335 L0.990654745,15.2396254 C0.990654745,11.3945606 4.23561337,10.1480308 7.27596377,9.27865618 L7.76510531,9.12843336 C9.98062879,8.44763634 11.8924369,7.86272621 11.8924369,6.30296589 L11.8924369,6.22625637 C11.8924369,4.80073771 10.6488025,3.7395893 8.6474783,3.7395893 C7.87060643,3.7395893 5.39292866,3.75557045 2.71703667,5.44637621 C2.39413931,5.63495379 2.2023191,5.76599922 1.95934683,5.9226145 C1.87622473,5.97695042 1.4861903,6.12717323 1.35191615,5.71485954 L0.443967134,3.19623017 L0.443967134,3.19623017 Z" id="path3013"></path>
                    </g>
                    <g id="g3015" transform="translate(109.109592, 19.525278) scale(1, -1) translate(-109.109592, -19.525278) translate(99.473965, 8.857262)">
                        <path d="M14.6084996,10.7201433 C14.6084996,8.49237092 14.1928892,6.73764056 13.3744563,5.49750325 C12.5656144,4.27015087 11.341162,3.67245582 9.63396208,3.67245582 C7.92356517,3.67245582 6.70550681,4.26695464 5.90945292,5.49750325 C5.10380802,6.73444433 4.69459156,8.49237092 4.69459156,10.7201433 C4.69459156,12.9447195 5.10380802,14.6962537 5.90945292,15.9236061 C6.70550681,17.1381735 7.92356517,17.7294761 9.63396208,17.7294761 C11.341162,17.7294761 12.5656144,17.1381735 13.3776533,15.9236061 C14.1928892,14.6962537 14.6084996,12.9447195 14.6084996,10.7201433 M18.4512979,14.8496727 C18.0740515,16.1249686 17.4858029,17.2500416 16.702537,18.186537 C15.9192711,19.1262287 14.9282,19.880539 13.7517027,20.4302906 C12.5784024,20.976846 11.1909028,21.254918 9.63396208,21.254918 C8.07382434,21.254918 6.68632479,20.976846 5.51302448,20.4302906 C4.33652716,19.880539 3.34545606,19.1262287 2.55899318,18.186537 C1.77892431,17.2468454 1.19067565,16.1217723 0.810232224,14.8496727 C0.436182806,13.5807693 0.247559596,12.1936055 0.247559596,10.7201433 C0.247559596,9.24668124 0.436182806,7.85632112 0.810232224,6.59061397 C1.19067565,5.31851436 1.7757273,4.19344134 2.56219018,3.25374967 C3.34545606,2.314058 4.33972417,1.56294391 5.51302448,1.02917348 C6.68952179,0.495403037 8.07382434,0.223723473 9.63396208,0.223723473 C11.1909028,0.223723473 12.5752054,0.495403037 13.7517027,1.02917348 C14.925003,1.56294391 15.9192711,2.314058 16.702537,3.25374967 C17.4858029,4.19024511 18.0740515,5.31531813 18.4512979,6.59061397 C18.8285444,7.85951735 19.0171676,9.24987747 19.0171676,10.7201433 C19.0171676,12.1904092 18.8285444,13.5807693 18.4512979,14.8496727" id="path3017"></path>
                    </g>
                    <g id="g3019" transform="translate(142.444291, 19.585681) scale(1, -1) translate(-142.444291, -19.585681) translate(134.185181, 8.917664)">
                        <path d="M15.2967587,4.32768301 C15.1688786,4.70164194 14.8076172,4.56100781 14.8076172,4.56100781 C14.2481416,4.34686039 13.6534989,4.14869412 13.0204922,4.04961098 C12.3778945,3.95052785 11.6713567,3.89938817 10.9136669,3.89938817 C9.05301077,3.89938817 7.57599512,4.45233599 6.51778694,5.5454467 C5.45638176,6.63855742 4.86173909,8.4060727 4.8681331,10.7968529 C4.87452711,12.9734856 5.39883569,14.6099555 6.34195174,15.8564852 C7.27867379,17.0966225 8.70453738,17.7326723 10.6067545,17.7326723 C12.1924683,17.7326723 13.4009356,17.5504872 14.666949,17.1509584 C14.666949,17.1509584 14.9706644,17.019913 15.1145295,17.4162456 C15.4502149,18.3495448 15.6995812,19.0175569 16.0576456,20.0435467 C16.1599497,20.3344037 15.9105834,20.4590567 15.8210673,20.4942152 C15.3223348,20.6891852 14.1458375,21.005612 13.2570705,21.1398537 C12.4258495,21.2677029 11.4539605,21.3348237 10.3733732,21.3348237 C8.75888644,21.3348237 7.32023484,21.0599479 6.08938846,20.5101964 C4.86173909,19.963641 3.81951593,19.2093307 2.99468901,18.269639 C2.16986208,17.3299473 1.54324938,16.2048743 1.12444192,14.9327747 C0.708831451,13.6638713 0.497829216,12.270315 0.497829216,10.7968529 C0.497829216,7.61021139 1.35782318,5.03404988 3.05543207,3.14827408 C4.75623797,1.25610582 7.31064383,0.294040537 10.6419215,0.294040537 C12.6112757,0.294040537 14.631782,0.693569308 16.0832216,1.26569451 C16.0832216,1.26569451 16.3613609,1.39993617 16.2398748,1.72275542 L15.2967587,4.32768301 L15.2967587,4.32768301 Z" id="path3021"></path>
                    </g>
                    <g id="g3023" transform="translate(160.479538, 19.455934) scale(1, -1) translate(-160.479538, -19.455934) translate(151.188040, 8.787918)">
                        <path d="M5.01748892,12.7849207 C5.19971813,14.0218618 5.54179751,15.0510479 6.0693031,15.8533016 C6.86535699,17.0710653 8.08021835,17.7390774 9.78741825,17.7390774 C11.4946182,17.7390774 12.6231604,17.0678691 13.4320023,15.8533016 C13.9690989,15.0510479 14.2024802,13.9771145 14.2951933,12.7849207 L5.01748892,12.7849207 L5.01748892,12.7849207 Z M17.9557624,15.5049125 C17.629668,16.7354612 16.8208261,17.9787947 16.2901235,18.5477237 C15.4525086,19.4490606 14.6340757,20.0787179 13.8220368,20.4303032 C12.7606316,20.8841679 11.4882242,21.1846136 10.0943306,21.1846136 C8.47025278,21.1846136 6.99643414,20.912934 5.8007548,20.3503975 C4.60187846,19.787861 3.59482234,19.0207657 2.80516245,18.0650929 C2.01550257,17.1126163 1.42085991,15.9779546 1.04361349,14.6898739 C0.66317006,13.4081856 0.471349846,12.011433 0.471349846,10.5379709 C0.471349846,9.03893892 0.669564067,7.64218633 1.06279551,6.38606788 C1.45922395,5.12036073 2.09223066,4.0048764 2.94902761,3.08116588 C3.80262757,2.1510629 4.9023968,1.42232243 6.21956227,0.914121828 C7.52713673,0.409117462 9.1160475,0.147026588 10.9415365,0.150222818 C14.6980157,0.163007739 16.676961,1.00042004 17.4921969,1.4510885 C17.636062,1.53099425 17.7735332,1.67162838 17.600895,2.07435338 L16.750492,4.45554486 C16.6226119,4.8103264 16.2613505,4.67928097 16.2613505,4.67928097 C15.3310224,4.33408811 14.007463,3.71401946 10.9223545,3.72041192 C8.90504527,3.72360815 7.4088476,4.31810696 6.47212555,5.24820994 C5.50982747,6.20068653 5.03986795,7.60063534 4.95674586,9.57590559 L17.9653534,9.56312066 C17.9653534,9.56312066 18.3074328,9.56951313 18.3425998,9.90192106 C18.3553878,10.0425552 18.7901803,12.5739695 17.9557624,15.5049125 L17.9557624,15.5049125 Z" id="path3025"></path>
                    </g>
                    <g id="g3027" transform="translate(56.299425, 19.455934) scale(1, -1) translate(-56.299425, -19.455934) translate(47.007927, 8.787918)">
                        <path d="M5.01748892,12.7849207 C5.20291513,14.0218618 5.54179751,15.0510479 6.0693031,15.8533016 C6.86535699,17.0710653 8.08021835,17.7390774 9.78741825,17.7390774 C11.4946182,17.7390774 12.6231604,17.0678691 13.4351993,15.8533016 C13.9690989,15.0510479 14.2024802,13.9771145 14.2951933,12.7849207 L5.01748892,12.7849207 L5.01748892,12.7849207 Z M17.9525654,15.5049125 C17.626471,16.7354612 16.8208261,17.9787947 16.2901235,18.5477237 C15.4525086,19.4490606 14.6340757,20.0787179 13.8220368,20.4303032 C12.7606316,20.8841679 11.4882242,21.1846136 10.0943306,21.1846136 C8.47344979,21.1846136 6.99643414,20.912934 5.8007548,20.3503975 C4.60187846,19.787861 3.59482234,19.0207657 2.80516245,18.0650929 C2.01550257,17.1126163 1.42085991,15.9779546 1.04361349,14.6898739 C0.666367064,13.4081856 0.471349846,12.011433 0.471349846,10.5379709 C0.471349846,9.03893892 0.669564067,7.64218633 1.06279551,6.38606788 C1.45922395,5.12036073 2.09223066,4.0048764 2.94902761,3.08116588 C3.80262757,2.1510629 4.9023968,1.42232243 6.21956227,0.914121828 C7.52713673,0.409117462 9.1160475,0.147026588 10.9415365,0.150222818 C14.6980157,0.163007739 16.676961,1.00042004 17.4921969,1.4510885 C17.636062,1.53099425 17.7735332,1.67162838 17.600895,2.07435338 L16.753689,4.45554486 C16.6226119,4.8103264 16.2613505,4.67928097 16.2613505,4.67928097 C15.3310224,4.33408811 14.01066,3.71401946 10.9191575,3.72041192 C8.90504527,3.72360815 7.4088476,4.31810696 6.47212555,5.24820994 C5.50982747,6.20068653 5.03986795,7.60063534 4.95674586,9.57590559 L17.9653534,9.56312066 C17.9653534,9.56312066 18.3074328,9.56951313 18.3425998,9.90192106 C18.3553878,10.0425552 18.7901803,12.5739695 17.9525654,15.5049125 L17.9525654,15.5049125 Z" id="path3029"></path>
                    </g>
                    <g id="g3031" transform="translate(26.804940, 19.514408) scale(1, -1) translate(-26.804940, -19.514408) translate(18.201701, 8.846392)">
                        <path d="M5.70574803,4.32768301 C5.19742447,4.73360424 5.12709039,4.83588361 4.95445219,5.09797448 C4.69869191,5.49750325 4.56761476,6.06643222 4.56761476,6.78878024 C4.56761476,7.93303064 4.94486118,8.75446179 5.72812706,9.30740961 C5.71853605,9.30421338 6.84707831,10.2822598 9.50059127,10.2471013 C11.3644444,10.2215314 13.0300832,9.94665565 13.0300832,9.94665565 L13.0300832,4.03362983 L13.0332802,4.03362983 C13.0332802,4.03362983 11.3804294,3.67884829 9.51977329,3.56698023 C6.87265434,3.40716872 5.69615702,4.33087924 5.70574803,4.32768301 M10.8816968,13.4657051 C10.3541912,13.5040598 9.67003246,13.5264334 8.85159955,13.5264334 C7.7358453,13.5264334 6.6584551,13.3857993 5.64820197,13.1141197 C4.63155483,12.8424402 3.71721181,12.4173416 2.93074893,11.8548051 C2.14108905,11.2890723 1.50488534,10.5667243 1.04451683,9.71013461 C0.584148312,8.85354493 0.350767051,7.8435362 0.350767051,6.71207072 C0.350767051,5.56142785 0.548981273,4.56100781 0.945409716,3.74277289 C1.34183816,2.92134174 1.9141018,2.23734848 2.64301861,1.7099705 C3.36554142,1.18259252 4.25750542,0.795848673 5.29333457,0.562523871 C6.31317871,0.329199068 7.47049401,0.210938552 8.73650742,0.210938552 C10.0696579,0.210938552 11.3996114,0.319610378 12.6880038,0.54015026 C13.9636083,0.757493911 15.53014,1.0739207 15.9649325,1.17300383 C16.396528,1.2752832 16.8760785,1.40632864 16.8760785,1.40632864 C17.1989759,1.48623439 17.1733998,1.83142725 17.1733998,1.83142725 L17.1670058,13.7245997 C17.1670058,16.3327235 16.4700591,18.2664428 15.0985445,19.4650291 C13.733424,20.6604192 11.7225088,21.2645067 9.12334485,21.2645067 C8.14825876,21.2645067 6.57853001,21.130265 5.63861096,20.9416874 C5.63861096,20.9416874 2.79647478,20.3919358 1.62637148,19.477814 C1.62637148,19.477814 1.37061119,19.3180025 1.51127935,18.9600247 L2.43201638,16.4861426 C2.54710851,16.1665196 2.85721785,16.2751914 2.85721785,16.2751914 C2.85721785,16.2751914 2.95632496,16.3135461 3.07141709,16.380667 C5.57467089,17.742261 8.73970442,17.70071 8.73970442,17.70071 C10.146386,17.70071 11.2269732,17.4194418 11.95589,16.8601015 C12.6656248,16.3167424 13.0268862,15.4953112 13.0268862,13.7629545 L13.0268862,13.2132029 C11.907935,13.3730144 10.8816968,13.4657051 10.8816968,13.4657051" id="path3033"></path>
                    </g>
                    <g id="g3035" transform="translate(128.097880, 19.312189) scale(1, -1) translate(-128.097880, -19.312189) translate(121.903548, 8.988302)">
                        <path d="M12.0997552,19.6205747 C12.1988623,19.9146279 11.9910571,20.055262 11.904738,20.0872243 C11.6841447,20.1735226 10.5779815,20.4068474 9.72438152,20.4611833 C8.0907127,20.5602664 7.18276368,20.2853906 6.37072478,19.9210204 C5.56507988,19.5566501 4.66991888,18.9685438 4.17118632,18.3005317 L4.17118632,19.8826656 C4.17118632,20.1032055 4.01453314,20.2789982 3.7971369,20.2789982 L0.462662176,20.2789982 C0.245265934,20.2789982 0.0886127586,20.1032055 0.0886127586,19.8826656 L0.0886127586,0.484744724 C0.0886127586,0.267401072 0.267644959,0.0884121827 0.485041201,0.0884121827 L3.90263802,0.0884121827 C4.12003426,0.0884121827 4.29586946,0.267401072 4.29586946,0.484744724 L4.29586946,10.1757146 C4.29586946,11.4765803 4.43973462,12.7742497 4.72746494,13.5892884 C5.00880126,14.3947384 5.39244168,15.0403769 5.86559821,15.5038303 C6.34195174,15.9640874 6.88224535,16.2869067 7.47369101,16.4690918 C8.07792468,16.6544731 8.74609843,16.7152015 9.21925496,16.7152015 C9.90021672,16.7152015 10.6483156,16.5394089 10.6483156,16.5394089 C10.8976818,16.5106428 11.03835,16.6640618 11.1214721,16.8909942 C11.3452623,17.485493 11.978269,19.2657932 12.0997552,19.6205747" id="path3037"></path>
                    </g>
                    <g id="g3039" transform="translate(90.801339, 19.764535) scale(1, -1) translate(-90.801339, -19.764535) translate(79.100934, 0.149150)">
                        <path d="M22.8229921,38.354762 C22.4073817,38.4826112 22.0301353,38.5689094 21.5377967,38.6616001 C21.0390641,38.7510946 20.4444215,38.7958418 19.7698537,38.7958418 C17.4168591,38.7958418 15.562597,38.1310259 14.2614166,36.8205715 C12.9666301,35.5165096 12.0874541,33.5316507 11.6462676,30.9203307 L11.4864175,30.0413674 L8.53238617,30.0413674 C8.53238617,30.0413674 8.17432177,30.0541523 8.09759368,29.6642122 L7.61484615,26.9570052 C7.57967911,26.7013068 7.69157423,26.5382991 8.03685062,26.5382991 L10.9109568,26.5382991 L7.99528957,10.2630951 C7.76830232,8.9526407 7.50614802,7.87551114 7.2152207,7.05727621 C6.93068738,6.25182621 6.65254807,5.64773871 6.30727168,5.20665894 C5.97478331,4.78475656 5.66147696,4.47152601 5.11798636,4.28934089 C4.67040586,4.13911807 4.15249128,4.068801 3.58662165,4.068801 C3.2733153,4.068801 2.85450783,4.11994069 2.54439848,4.18386529 C2.23748614,4.24459366 2.07443896,4.3117145 1.8410577,4.41079763 C1.8410577,4.41079763 1.50537232,4.53864684 1.37109817,4.20304267 C1.26559705,3.92497065 0.498316195,1.81865497 0.405603092,1.55976032 C0.316086992,1.30086568 0.443967134,1.09950318 0.607014317,1.0387748 C0.990654745,0.904533138 1.27518806,0.815038693 1.79629965,0.690385716 C2.51882245,0.520985517 3.12945013,0.511396827 3.70171377,0.511396827 C4.89739311,0.511396827 5.99076833,0.680797026 6.89552034,1.0068125 C7.80346936,1.33602421 8.59632624,1.90814941 9.29966703,2.68163711 C10.0573569,3.51904942 10.5337104,4.39481648 10.9876849,5.5934028 C11.4384624,6.77600796 11.8252998,8.24627384 12.1322122,9.95945321 L15.0638645,26.5382991 L19.3478493,26.5382991 C19.3478493,26.5382991 19.7091107,26.5255142 19.7826417,26.9186505 L20.2685863,29.6226612 C20.3005563,29.8815558 20.1918582,30.0413674 19.8433848,30.0413674 L15.6840832,30.0413674 C15.7064622,30.134058 15.8950854,31.5979314 16.3714389,32.9755067 C16.5760472,33.5604168 16.9596876,34.0366551 17.2825849,34.3626705 C17.6022853,34.6822936 17.9699407,34.9092259 18.3727632,35.0402713 C18.7851766,35.174513 19.2551361,35.2384376 19.7698537,35.2384376 C20.1598882,35.2384376 20.5467256,35.1936904 20.8376529,35.132962 C21.2404754,35.0466638 21.3971285,35.0019166 21.5026297,34.9699543 C21.9278311,34.8421051 21.9853772,34.966758 22.0684993,35.1713168 L23.0627674,37.9008973 C23.1650715,38.1949505 22.9125082,38.3196035 22.8229921,38.354762" id="path3041"></path>
                    </g>
                    <g id="g3043" transform="translate(41.890074, 15.142044) scale(1, -1) translate(-41.890074, -15.142044) translate(39.481167, 0.688602)">
                        <path d="M4.32922982,0.443193731 C4.32922982,0.22585008 4.17257664,0.0500574207 3.9551804,0.0500574207 L0.505613544,0.0500574207 C0.288217301,0.0500574207 0.134761129,0.22585008 0.134761129,0.443193731 L0.134761129,28.1992565 C0.134761129,28.4166002 0.288217301,28.5923928 0.505613544,28.5923928 L3.9551804,28.5923928 C4.17257664,28.5923928 4.32922982,28.4166002 4.32922982,28.1992565 L4.32922982,0.443193731 L4.32922982,0.443193731 Z" id="path3045"></path>
                    </g>
                </g>
            </g>
        </g>
    </g>
</svg>