<?xml version="1.0" encoding="UTF-8" standalone="no"?>
<svg width="180px" height="42px" viewBox="0 0 180 42" version="1.1" xmlns="http://www.w3.org/2000/svg" xmlns:xlink="http://www.w3.org/1999/xlink">
    <!-- Generator: Sketch 39.1 (31720) - http://www.bohemiancoding.com/sketch -->
    <title>dropbox_blue</title>
    <desc>Created with Sketch.</desc>
    <defs></defs>
    <g id="Page-1" stroke="none" stroke-width="1" fill="none" fill-rule="evenodd">
        <g id="dropbox_blue" fill="#FFFFFF">
            <g id="XMLID_12_" transform="translate(50.294118, 7.219251)">
                <path d="M0.120320856,1.44385027 L8.8315508,1.44385027 C16.2914439,1.44385027 21.0080214,6.25668449 21.0080214,13.7647059 C21.0080214,21.2727273 16.315508,26.0855615 8.8315508,26.0855615 L0.120320856,26.0855615 L0.120320856,1.44385027 L0.120320856,1.44385027 Z M8.63903743,21.5855615 C13.3315508,21.5855615 15.9064171,18.5775401 15.9064171,13.7887701 C15.9064171,8.97593583 13.3315508,5.96791444 8.63903743,5.96791444 L5.22192513,5.96791444 L5.22192513,21.5855615 L8.63903743,21.5855615 L8.63903743,21.5855615 Z" id="XMLID_29_"></path>
                <path d="M34.2192513,13.0668449 C33.5454545,12.657754 32.6550802,12.4652406 31.7165775,12.4652406 C30.0320856,12.4652406 28.6604278,13.355615 28.2994652,14.9919786 L28.2994652,26.1096257 L23.342246,26.1096257 L23.342246,8.15775401 L28.3235294,8.15775401 L28.3235294,9.9144385 C29.0935829,8.63903743 30.5614973,7.7486631 32.342246,7.7486631 C33.184492,7.7486631 33.9545455,7.9171123 34.2192513,8.06149733 L34.2192513,13.0668449 L34.2192513,13.0668449 Z" id="XMLID_27_"></path>
                <path d="M44.157754,26.5187166 C38.9358289,26.5187166 35.3502674,22.6684492 35.3502674,17.157754 C35.3502674,11.6229947 38.9358289,7.7486631 44.157754,7.7486631 C49.3796791,7.7486631 52.9411765,11.5989305 52.9411765,17.157754 C52.9411765,22.6684492 49.3796791,26.5187166 44.157754,26.5187166 L44.157754,26.5187166 Z M44.157754,11.9839572 C41.6550802,11.9839572 40.3074866,14.1497326 40.3074866,17.157754 C40.3074866,20.1176471 41.6791444,22.3074866 44.157754,22.3074866 C46.6363636,22.3074866 48.0080214,20.1417112 48.0080214,17.157754 C48.0080214,14.1497326 46.6363636,11.9839572 44.157754,11.9839572 L44.157754,11.9839572 Z" id="XMLID_24_"></path>
                <path d="M60.0641711,32.7513369 L55.0828877,32.7513369 L55.0828877,8.15775401 L60.0641711,8.15775401 L60.0641711,9.64973262 C60.8582888,8.68716578 62.6390374,7.77272727 64.5641711,7.77272727 C69.7860963,7.77272727 72.7459893,12.1042781 72.7459893,17.1818182 C72.7459893,22.2352941 69.7860963,26.5427807 64.5641711,26.5427807 C62.6390374,26.5427807 60.8582888,25.6283422 60.0641711,24.6657754 L60.0641711,32.7513369 L60.0641711,32.7513369 Z M60.0641711,20.0935829 C60.6657754,21.3449198 61.9893048,22.1871658 63.4331551,22.1871658 C66.1283422,22.1871658 67.7406417,20.0213904 67.7406417,17.157754 C67.7406417,14.2700535 66.1283422,12.1042781 63.4331551,12.1042781 C61.9411765,12.1042781 60.6657754,12.9946524 60.0641711,14.197861 L60.0641711,20.0935829 L60.0641711,20.0935829 Z" id="XMLID_21_"></path>
                <path d="M79.9171123,26.1096257 L74.8877005,26.1096257 L74.8877005,0 L79.9171123,0 L79.9171123,9.64973262 C80.7112299,8.68716578 82.4919786,7.77272727 84.4171123,7.77272727 C89.6390374,7.77272727 92.5748663,12.0320856 92.5748663,17.1818182 C92.5748663,22.3315508 89.6390374,26.5427807 84.4171123,26.5427807 C82.4919786,26.5427807 80.7112299,25.6283422 79.9171123,24.6657754 L79.9171123,26.1096257 L79.9171123,26.1096257 Z M79.9171123,20.0935829 C80.4705882,21.3449198 81.7941176,22.1871658 83.2860963,22.1871658 C85.9812834,22.1871658 87.5935829,20.0213904 87.5935829,17.157754 C87.5935829,14.2700535 85.9812834,12.1042781 83.2860963,12.1042781 C81.842246,12.1042781 80.4705882,12.9946524 79.9171123,14.197861 L79.9171123,20.0935829 L79.9171123,20.0935829 Z" id="XMLID_18_"></path>
                <path d="M103.163102,26.5668449 C97.9411765,26.5668449 94.355615,22.7165775 94.355615,17.2058824 C94.355615,11.671123 97.9411765,7.79679144 103.163102,7.79679144 C108.385027,7.79679144 111.946524,11.6470588 111.946524,17.2058824 C111.946524,22.7165775 108.360963,26.5668449 103.163102,26.5668449 L103.163102,26.5668449 Z M103.163102,12.0320856 C100.660428,12.0320856 99.3128342,14.197861 99.3128342,17.2058824 C99.3128342,20.1657754 100.684492,22.355615 103.163102,22.355615 C105.641711,22.355615 107.013369,20.1898396 107.013369,17.2058824 C107.013369,14.197861 105.641711,12.0320856 103.163102,12.0320856 L103.163102,12.0320856 Z" id="XMLID_15_"></path>
                <polygon id="XMLID_13_" points="123.136364 16.8449198 129.681818 26.1336898 124.171123 26.1336898 120.320856 20.5026738 116.42246 26.1336898 111.200535 26.1336898 117.673797 16.9652406 111.585561 8.18181818 117.096257 8.18181818 120.561497 13.2834225 124.074866 8.18181818 129.296791 8.18181818"></polygon>
            </g>
            <g id="XMLID_6_">
                <polygon id="XMLID_11_" points="12.9705882 0.21657754 0 8.56684492 8.97593583 15.8101604 22.0187166 7.7486631"></polygon>
                <polygon id="XMLID_10_" points="0 22.8850267 12.9705882 31.4037433 22.0187166 23.8716578 8.97593583 15.8101604"></polygon>
                <polygon id="XMLID_9_" points="22.0187166 23.8716578 31.0668449 31.4037433 43.9893048 22.9812834 35.0374332 15.8101604"></polygon>
                <polygon id="XMLID_8_" points="43.9893048 8.63903743 31.0668449 0.21657754 22.0187166 7.7486631 35.0374332 15.8101604"></polygon>
                <polygon id="XMLID_7_" points="22.0427807 25.4839572 12.9705882 33.0160428 9.07219251 30.4893048 9.07219251 33.328877 22.0427807 41.1016043 34.9893048 33.328877 34.9893048 30.4893048 31.1149733 33.0160428"></polygon>
            </g>
        </g>
    </g>
</svg>