<?xml version="1.0" encoding="UTF-8" standalone="no"?>
<svg width="187px" height="29px" viewBox="0 0 187 29" version="1.1" xmlns="http://www.w3.org/2000/svg" xmlns:xlink="http://www.w3.org/1999/xlink">
    <!-- Generator: Sketch 39.1 (31720) - http://www.bohemiancoding.com/sketch -->
    <title>client-logo-1</title>
    <desc>Created with Sketch.</desc>
    <defs>
        <polygon id="path-1" points="0.0002 28.4363409 50 28.4363409 50 0.000250626566 0.0002 0.000250626566"></polygon>
    </defs>
    <g id="Page-1" stroke="none" stroke-width="1" fill="none" fill-rule="evenodd">
        <g id="client-logo-1">
            <g id="Page-1">
                <g id="Group">
                    <g id="Page-1">
                        <g id="Fill-1-Clipped">
                            <mask id="mask-2" fill="white">
                                <use xlink:href="#path-1"></use>
                            </mask>
                            <g id="path-1"></g>
                            <path d="M24.4292,24.0616541 C22.7507,22.1137845 21.5642,19.7408521 21.0542,17.1137845 C19.9252,19.8015038 17.2737,21.6897243 14.1827,21.6897243 C10.0667,21.6897243 6.7302,18.3448622 6.7302,14.2180451 C6.7302,10.0922306 10.0667,6.74686717 14.1827,6.74686717 C18.4827,6.74686717 21.6352,10.3137845 21.6352,14.2180451 C21.6352,22.0701754 27.9847,28.4365915 35.8177,28.4365915 C43.6502,28.4365915 50.0002,22.0701754 50.0002,14.2180451 C50.0002,6.36591479 43.6502,0 35.8177,0 C31.7942,0 28.1637,1.68320802 25.5827,4.38145363 C27.2522,6.32531328 28.4382,8.70426065 28.9457,11.3223058 C30.0742,8.63458647 32.7262,6.74686717 35.8177,6.74686717 C39.9337,6.74686717 43.2707,10.0922306 43.2707,14.2180451 C43.2707,18.3448622 39.9337,21.6897243 35.8177,21.6897243 C31.7017,21.6897243 28.3647,18.3448622 28.3647,14.2180451 C28.3647,6.36591479 22.0152,0 14.1827,0 C6.3502,0 0.0002,6.36591479 0.0002,14.2180451 C0.0002,22.0701754 6.3502,28.4365915 14.1827,28.4365915 C18.2097,28.4365915 21.8482,26.764411 24.4292,24.0616541" id="Fill-1" fill="#FFFFFF" mask="url(#mask-2)"></path>
                        </g>
                    </g>
                    <path d="M60.548,23 L64.86,23 L64.86,3.4 L60.548,3.4 L60.548,23 Z M69.76,23 L74.016,23 L74.016,10.54 L83.508,23 L87.176,23 L87.176,3.4 L82.92,3.4 L82.92,15.468 L73.736,3.4 L69.76,3.4 L69.76,23 Z M91.88,23 L96.192,23 L96.192,15.412 L105.544,15.412 L105.544,11.492 L96.192,11.492 L96.192,7.32 L106.804,7.32 L106.804,3.4 L91.88,3.4 L91.88,23 Z M110.444,23 L114.756,23 L114.756,3.4 L110.444,3.4 L110.444,23 Z M119.656,23 L123.912,23 L123.912,10.54 L133.404,23 L137.072,23 L137.072,3.4 L132.816,3.4 L132.816,15.468 L123.632,3.4 L119.656,3.4 L119.656,23 Z M141.972,23 L146.284,23 L146.284,3.4 L141.972,3.4 L141.972,23 Z M155.748,23 L160.06,23 L160.06,7.376 L166.024,7.376 L166.024,3.4 L149.784,3.4 L149.784,7.376 L155.748,7.376 L155.748,23 Z M174.844,23 L179.156,23 L179.156,15.188 L186.688,3.4 L181.788,3.4 L177.028,11.268 L172.352,3.4 L167.312,3.4 L174.844,15.272 L174.844,23 Z" id="INFINITY" fill="#FFFFFF"></path>
                </g>
            </g>
        </g>
    </g>
</svg>