<?xml version="1.0" encoding="UTF-8" standalone="no"?>
<svg width="44px" height="33px" viewBox="0 0 44 33" version="1.1" xmlns="http://www.w3.org/2000/svg" xmlns:xlink="http://www.w3.org/1999/xlink">
    <!-- Generator: Sketch 3.8.3 (29802) - http://www.bohemiancoding.com/sketch -->
    <title>Page 1</title>
    <desc>Created with Sketch.</desc>
    <defs></defs>
    <g id="Page-1" stroke="none" stroke-width="1" fill="none" fill-rule="evenodd">
        <g transform="translate(0.000000, -1.000000)" fill="#FFFFFF">
            <path d="M12,8.3643 C12,10.6453 11.479,13.3643 9,13.3643 C6.521,13.3643 6,10.6453 6,8.3643 C6,5.1863 7.093,3.3643 9,3.3643 C11.61,3.3643 12,6.4973 12,8.3643 M4,8.3643 C4,14.8593 7.827,15.3643 9,15.3643 C10.173,15.3643 14,14.8593 14,8.3643 C14,1.8693 10.173,1.3643 9,1.3643 C6.583,1.3643 4,3.2033 4,8.3643" id="Fill-1"></path>
            <path d="M16,31.3643 L2,31.3643 L2,26.3643 C2,22.5053 5.14,19.3643 9,19.3643 C12.86,19.3643 16,22.5053 16,26.3643 L16,31.3643 Z M9,17.3643 C4.038,17.3643 0,21.4013 0,26.3643 L0,32.3643 C0,32.9173 0.448,33.3643 1,33.3643 L17,33.3643 C17.552,33.3643 18,32.9173 18,32.3643 L18,26.3643 C18,21.4013 13.962,17.3643 9,17.3643 L9,17.3643 Z" id="Fill-3"></path>
            <path d="M38,8.3643 C38,10.6453 37.479,13.3643 35,13.3643 C32.521,13.3643 32,10.6453 32,8.3643 C32,5.1863 33.093,3.3643 35,3.3643 C37.609,3.3643 38,6.4973 38,8.3643 M30,8.3643 C30,14.8593 33.827,15.3643 35,15.3643 C36.173,15.3643 40,14.8593 40,8.3643 C40,1.8693 36.173,1.3643 35,1.3643 C32.583,1.3643 30,3.2033 30,8.3643" id="Fill-5"></path>
            <path d="M42,31.3643 L28,31.3643 L28,26.3643 C28,22.5053 31.141,19.3643 35,19.3643 C38.859,19.3643 42,22.5053 42,26.3643 L42,31.3643 Z M35,17.3643 C30.038,17.3643 26,21.4013 26,26.3643 L26,32.3643 C26,32.9173 26.448,33.3643 27,33.3643 L43,33.3643 C43.552,33.3643 44,32.9173 44,32.3643 L44,26.3643 C44,21.4013 39.962,17.3643 35,17.3643 L35,17.3643 Z" id="Fill-7"></path>
            <path d="M18.2432,4.1221 C17.8522,3.7311 17.2202,3.7311 16.8292,4.1221 C16.4382,4.5131 16.4382,5.1451 16.8292,5.5361 C17.5842,6.2921 18.0002,7.2961 18.0002,8.3641 C18.0002,9.4321 17.5842,10.4361 16.8292,11.1921 C16.4382,11.5831 16.4382,12.2151 16.8292,12.6061 C17.0242,12.8011 17.2802,12.8991 17.5362,12.8991 C17.7922,12.8991 18.0482,12.8011 18.2432,12.6061 C19.3762,11.4731 20.0002,9.9661 20.0002,8.3641 C20.0002,6.7621 19.3762,5.2551 18.2432,4.1221" id="Fill-9"></path>
            <g id="Group-13" transform="translate(19.000000, 0.364300)">
                <path d="M0.6572,0.9292 C0.2662,1.3202 0.2662,1.9522 0.6572,2.3432 C2.1682,3.8542 3.0002,5.8642 3.0002,8.0002 C3.0002,10.1362 2.1682,12.1462 0.6572,13.6572 C0.2662,14.0482 0.2662,14.6802 0.6572,15.0712 C0.8522,15.2662 1.1082,15.3642 1.3642,15.3642 C1.6202,15.3642 1.8762,15.2662 2.0712,15.0712 C3.9602,13.1822 5.0002,10.6712 5.0002,8.0002 C5.0002,5.3292 3.9602,2.8172 2.0712,0.9292 C1.6802,0.5382 1.0472,0.5382 0.6572,0.9292" id="Fill-11"></path>
            </g>
        </g>
    </g>
</svg>