<?xml version="1.0" encoding="UTF-8" standalone="no"?>
<svg width="42px" height="42px" viewBox="0 0 42 42" version="1.1" xmlns="http://www.w3.org/2000/svg" xmlns:xlink="http://www.w3.org/1999/xlink">
    <!-- Generator: Sketch 3.8.3 (29802) - http://www.bohemiancoding.com/sketch -->
    <title>Page 1</title>
    <desc>Created with Sketch.</desc>
    <defs></defs>
    <g id="Page-1" stroke="none" stroke-width="1" fill="none" fill-rule="evenodd">
        <g fill="#FFFFFF">
            <path d="M21,2 C31.477,2 40,10.523 40,21 C40,31.477 31.477,40 21,40 C10.523,40 2,31.477 2,21 C2,10.523 10.523,2 21,2 M21,42 C32.58,42 42,32.58 42,21 C42,9.42 32.58,0 21,0 C9.42,0 0,9.42 0,21 C0,32.58 9.42,42 21,42" id="Fill-1"></path>
            <path d="M20.293,21.707 L28.293,29.707 C28.488,29.902 28.744,30 29,30 C29.256,30 29.512,29.902 29.707,29.707 C30.098,29.316 30.098,28.684 29.707,28.293 L22,20.586 L22,11 C22,10.448 21.552,10 21,10 C20.448,10 20,10.448 20,11 L20,21 C20,21.13 20.027,21.26 20.077,21.382 C20.128,21.505 20.201,21.615 20.293,21.707" id="Fill-3"></path>
            <path d="M21,8 C21.552,8 22,7.552 22,7 L22,5 C22,4.448 21.552,4 21,4 C20.448,4 20,4.448 20,5 L20,7 C20,7.552 20.448,8 21,8" id="Fill-5"></path>
            <path d="M21,38 C21.552,38 22,37.552 22,37 L22,35 C22,34.448 21.552,34 21,34 C20.448,34 20,34.448 20,35 L20,37 C20,37.552 20.448,38 21,38" id="Fill-7"></path>
            <path d="M8,21 C8,20.448 7.552,20 7,20 L5,20 C4.448,20 4,20.448 4,21 C4,21.552 4.448,22 5,22 L7,22 C7.552,22 8,21.552 8,21" id="Fill-9"></path>
            <path d="M34,21 C34,21.552 34.448,22 35,22 L37,22 C37.552,22 38,21.552 38,21 C38,20.448 37.552,20 37,20 L35,20 C34.448,20 34,20.448 34,21" id="Fill-11"></path>
            <path d="M13.1338,9.375 C13.3188,9.696 13.6548,9.875 14.0008,9.875 C14.1698,9.875 14.3428,9.832 14.4998,9.741 C14.9788,9.465 15.1418,8.853 14.8658,8.375 L13.8658,6.644 C13.5898,6.166 12.9768,5.999 12.4998,6.278 C12.0208,6.554 11.8578,7.166 12.1338,7.644 L13.1338,9.375 Z" id="Fill-13"></path>
            <path d="M28.8662,32.625 C28.5902,32.146 27.9762,31.98 27.5002,32.259 C27.0212,32.535 26.8572,33.146 27.1342,33.625 L28.1342,35.355 C28.3182,35.677 28.6542,35.855 29.0012,35.855 C29.1702,35.855 29.3432,35.813 29.5002,35.723 C29.9782,35.445 30.1422,34.834 29.8662,34.355 L28.8662,32.625 Z" id="Fill-15"></path>
            <path d="M9.376,28.8662 C9.854,28.5902 10.018,27.9782 9.742,27.5002 C9.465,27.0212 8.854,26.8572 8.376,27.1342 L6.644,28.1342 C6.166,28.4102 6.002,29.0212 6.278,29.5002 C6.464,29.8202 6.799,30.0002 7.145,30.0002 C7.314,30.0002 7.486,29.9572 7.644,29.8662 L9.376,28.8662 Z" id="Fill-17"></path>
            <path d="M33.125,15 C33.294,15 33.466,14.957 33.624,14.866 L35.355,13.866 C35.834,13.59 35.998,12.978 35.723,12.5 C35.445,12.021 34.835,11.857 34.355,12.134 L32.624,13.134 C32.146,13.41 31.982,14.022 32.258,14.5 C32.443,14.821 32.779,15 33.125,15" id="Fill-19"></path>
            <path d="M6.644,13.8662 L8.376,14.8662 C8.534,14.9572 8.706,15.0002 8.875,15.0002 C9.221,15.0002 9.557,14.8212 9.742,14.5002 C10.018,14.0212 9.854,13.4102 9.376,13.1342 L7.644,12.1342 C7.164,11.8572 6.554,12.0222 6.278,12.5002 C6.002,12.9782 6.166,13.5902 6.644,13.8662" id="Fill-21"></path>
            <path d="M32.624,28.8662 L34.355,29.8662 C34.514,29.9572 34.686,30.0002 34.855,30.0002 C35.201,30.0002 35.537,29.8202 35.723,29.5002 C35.998,29.0212 35.834,28.4102 35.355,28.1342 L33.624,27.1342 C33.143,26.8572 32.534,27.0212 32.258,27.5002 C31.982,27.9782 32.146,28.5902 32.624,28.8662" id="Fill-23"></path>
            <path d="M12.5,35.7227 C12.657,35.8127 12.829,35.8557 12.999,35.8557 C13.345,35.8557 13.681,35.6767 13.866,35.3557 L14.866,33.6247 C15.142,33.1467 14.979,32.5347 14.5,32.2587 C14.022,31.9807 13.41,32.1467 13.134,32.6247 L12.134,34.3557 C11.858,34.8337 12.021,35.4457 12.5,35.7227" id="Fill-25"></path>
            <path d="M27.5,9.7412 C27.657,9.8322 27.829,9.8752 27.999,9.8752 C28.346,9.8752 28.682,9.6962 28.866,9.3752 L29.866,7.6442 C30.143,7.1662 29.979,6.5542 29.5,6.2782 C29.021,6.0002 28.41,6.1652 28.134,6.6442 L27.134,8.3752 C26.857,8.8532 27.021,9.4652 27.5,9.7412" id="Fill-27"></path>
        </g>
    </g>
</svg>