<?xml version="1.0" encoding="UTF-8" standalone="no"?>
<svg width="43px" height="42px" viewBox="0 0 43 42" version="1.1" xmlns="http://www.w3.org/2000/svg" xmlns:xlink="http://www.w3.org/1999/xlink">
    <!-- Generator: Sketch 3.8.3 (29802) - http://www.bohemiancoding.com/sketch -->
    <title>Page 1</title>
    <desc>Created with Sketch.</desc>
    <defs></defs>
    <g id="Page-1" stroke="none" stroke-width="1" fill="none" fill-rule="evenodd">
        <g fill="#FFFFFF">
            <path d="M40,6 L18,6 C17.448,6 17,6.447 17,7 L17,9 C17,9.553 17.448,10 18,10 C18.552,10 19,9.553 19,9 L19,8 L39,8 L39,24 L19,24 L19,20 C19,19.447 18.552,19 18,19 C17.448,19 17,19.447 17,20 L17,25 C17,25.553 17.448,26 18,26 L20.78,26 L19.019,34.805 C18.911,35.346 19.262,35.872 19.803,35.98 C19.869,35.995 19.935,36.001 20,36.001 C20.467,36.001 20.885,35.673 20.979,35.197 L22.82,26 L33.18,26 L35.02,35.195 C35.113,35.672 35.532,36 35.998,36 C36.062,36 36.129,35.994 36.195,35.98 C36.736,35.872 37.088,35.346 36.979,34.803 L35.221,26 L40,26 C40.552,26 41,25.553 41,25 L41,7 C41,6.447 40.552,6 40,6" id="Fill-1"></path>
            <path d="M8,10 C6.195,10 6,7.902 6,7 C6,6.098 6.195,4 8,4 C9.805,4 10,6.098 10,7 C10,7.902 9.805,10 8,10 M12,7 C12,3.963 10.43,2 8,2 C5.57,2 4,3.963 4,7 C4,10.037 5.57,12 8,12 C10.43,12 12,10.037 12,7" id="Fill-3"></path>
            <path d="M2.7241,16.7139 C2.8981,14.8369 3.7021,13.9999 8.0001,13.9999 L20.7881,13.9999 C20.9051,13.9999 21.0001,14.0949 21.0001,14.2119 C21.0001,14.3279 20.9051,14.4229 20.7231,14.4249 L11.9351,15.0019 C11.4091,15.0369 11.0001,15.4739 11.0001,15.9999 L11.0001,39.5519 L11.0001,39.6039 C10.9991,39.5669 10.9981,39.5239 10.9981,39.4809 L10.1651,28.0679 C10.1651,27.4469 9.9541,26.0009 8.0011,26.0009 C6.0481,26.0009 5.8371,27.4469 5.8391,27.9969 L5.0001,39.5519 L5.0001,23.7149 C5.0011,23.6839 5.0021,23.6519 5.0021,23.6209 C5.0021,23.5999 5.0021,23.5789 5.0001,23.5589 L5.0001,18.9999 C5.0001,18.4469 4.5521,17.9999 4.0001,17.9999 C3.4481,17.9999 3.0001,18.4469 3.0001,18.9999 L3.0001,23.6519 C2.9751,23.8639 2.7141,24.0679 2.4571,24.0679 C2.2181,24.0679 2.0211,23.8869 2.0011,23.6579 L2.7241,16.7139 Z M0.7341,16.5179 L0.0051,23.5179 C0.0021,23.5519 0.0001,23.5869 0.0001,23.6219 C0.0001,24.9729 1.1021,26.0679 2.4571,26.0679 C2.6431,26.0679 2.8241,26.0479 3.0001,26.0099 L3.0001,39.5519 C3.0001,41.8229 4.5311,41.9999 5.0001,41.9999 C5.4691,41.9999 7.0001,41.8229 6.9981,39.6239 L7.8361,28.0679 C7.8361,28.0449 7.8361,28.0239 7.8371,28.0059 C7.9191,27.9979 8.0801,27.9979 8.1621,28.0059 C8.1641,28.0399 8.1661,28.0839 8.1661,28.1409 L9.0001,39.5519 C9.0001,41.8229 10.5311,41.9999 11.0001,41.9999 C11.4691,41.9999 13.0001,41.8229 13.0001,39.5519 L13.0001,16.9369 L20.7881,16.4229 C22.0081,16.4229 23.0001,15.4309 23.0001,14.2119 C23.0001,12.9919 22.0081,11.9999 20.7881,11.9999 L8.0001,11.9999 C4.6881,11.9999 1.1211,12.3499 0.7341,16.5179 L0.7341,16.5179 Z" id="Fill-5"></path>
            <path d="M42,2 L31,2 L31,1 C31,0.447 30.552,0 30,0 L28,0 C27.448,0 27,0.447 27,1 L27,2 L16,2 C15.448,2 15,2.447 15,3 C15,3.553 15.448,4 16,4 L42,4 C42.552,4 43,3.553 43,3 C43,2.447 42.552,2 42,2" id="Fill-7"></path>
            <path d="M28.7012,14.3208 C28.3102,13.9358 27.6832,13.9368 27.2952,14.3248 L21.2952,20.2908 C20.9032,20.6818 20.9012,21.3128 21.2912,21.7048 C21.4862,21.9008 21.7432,21.9998 22.0002,21.9998 C22.2552,21.9998 22.5102,21.9028 22.7052,21.7088 L28.0042,16.4398 L29.2992,17.7118 C29.6912,18.0968 30.3182,18.0948 30.7072,17.7058 L35.0002,13.4138 L35.0002,14.9998 C35.0002,15.5528 35.4482,15.9998 36.0002,15.9998 C36.5522,15.9998 37.0002,15.5528 37.0002,14.9998 L37.0002,10.9998 C37.0002,10.8698 36.9722,10.7398 36.9232,10.6178 C36.8222,10.3728 36.6272,10.1778 36.3822,10.0768 C36.2602,10.0258 36.1302,9.9998 36.0002,9.9998 L32.0002,9.9998 C31.4482,9.9998 31.0002,10.4468 31.0002,10.9998 C31.0002,11.5528 31.4482,11.9998 32.0002,11.9998 L33.5862,11.9998 L29.9942,15.5918 L28.7012,14.3208 Z" id="Fill-9"></path>
        </g>
    </g>
</svg>