<?xml version="1.0" encoding="utf-8"?>
<!-- Generator: Adobe Illustrator 16.0.4, SVG Export Plug-In . SVG Version: 6.00 Build 0)  -->
<!DOCTYPE svg PUBLIC "-//W3C//DTD SVG 1.1//EN" "http://www.w3.org/Graphics/SVG/1.1/DTD/svg11.dtd">
<svg version="1.1" id="Layer_1" xmlns="http://www.w3.org/2000/svg" xmlns:xlink="http://www.w3.org/1999/xlink" x="0px" y="0px"
	 width="230px" height="60px" viewBox="0 0 230 60" enable-background="new 0 0 230 60" xml:space="preserve">
<g>
	<g opacity="0" enable-background="new    ">
		<g>
			<defs>
				<rect id="SVGID_1_" x="5" y="4" width="220" height="52"/>
			</defs>
			<clipPath id="SVGID_2_">
				<use xlink:href="#SVGID_1_"  overflow="visible"/>
			</clipPath>
			<g clip-path="url(#SVGID_2_)">
				<defs>
					<rect id="SVGID_3_" x="1" width="230" height="60"/>
				</defs>
				<clipPath id="SVGID_4_">
					<use xlink:href="#SVGID_3_"  overflow="visible"/>
				</clipPath>
				<g clip-path="url(#SVGID_4_)">
					<defs>
						<rect id="SVGID_5_" x="5" y="4" width="220" height="52"/>
					</defs>
					<clipPath id="SVGID_6_">
						<use xlink:href="#SVGID_5_"  overflow="visible"/>
					</clipPath>
					<rect x="-4" y="-5" clip-path="url(#SVGID_6_)" fill="#D8D8D8" width="240" height="70"/>
				</g>
			</g>
		</g>
	</g>
	<g>
		<defs>
			<circle id="SVGID_7_" cx="30.731" cy="29.731" r="25.731"/>
		</defs>
		<clipPath id="SVGID_8_">
			<use xlink:href="#SVGID_7_"  overflow="visible"/>
		</clipPath>
		<rect y="-1" clip-path="url(#SVGID_8_)" fill="#35373C" width="61.462" height="61.462"/>
	</g>
	<g>
		<defs>
			<path id="SVGID_9_" d="M34.162,16.865L34.162,16.865H21.725v25.731h5.146v-7.72h7.29l0,0c4.974,0,9.006-4.032,9.006-9.006
				S39.136,16.865,34.162,16.865 M34.162,29.73L34.162,29.73l-7.29,0.001v-7.72h7.29l0,0c2.132,0,3.86,1.728,3.86,3.859
				C38.021,28.003,36.293,29.73,34.162,29.73"/>
		</defs>
		<clipPath id="SVGID_10_">
			<use xlink:href="#SVGID_9_"  overflow="visible"/>
		</clipPath>
		<rect x="16.725" y="11.865" clip-path="url(#SVGID_10_)" fill="#FFFFFF" width="31.442" height="35.731"/>
	</g>
	<g>
		<defs>
			<path id="SVGID_11_" d="M73.616,38.308V21.154h7.881c3.664,0,5.659,2.476,5.659,5.432c0,2.93-2.02,5.406-5.659,5.406h-4.293
				v6.315H73.616z M83.494,26.586c0-1.416-1.088-2.274-2.501-2.274h-3.789v4.522h3.789C82.406,28.834,83.494,27.976,83.494,26.586z"
				/>
		</defs>
		<clipPath id="SVGID_12_">
			<use xlink:href="#SVGID_11_"  overflow="visible"/>
		</clipPath>
		<rect x="68.616" y="16.154" clip-path="url(#SVGID_12_)" fill="#35373C" width="23.54" height="27.154"/>
	</g>
	<g>
		<defs>
			<path id="SVGID_13_" d="M89.338,38.308V25.802h3.207v1.643c0.885-1.062,2.376-1.945,3.892-1.945v3.132
				c-0.228-0.051-0.506-0.075-0.884-0.075c-1.062,0-2.477,0.605-3.008,1.39v8.361H89.338z"/>
		</defs>
		<clipPath id="SVGID_14_">
			<use xlink:href="#SVGID_13_"  overflow="visible"/>
		</clipPath>
		<rect x="84.338" y="20.5" clip-path="url(#SVGID_14_)" fill="#35373C" width="17.099" height="22.808"/>
	</g>
	<g>
		<defs>
			<path id="SVGID_15_" d="M97.653,31.891c0-3.461,2.425-6.391,6.443-6.391c4.042,0,6.467,2.93,6.467,6.391
				s-2.425,6.417-6.467,6.417C100.078,38.308,97.653,35.352,97.653,31.891 M107.229,31.891c0-1.895-1.113-3.537-3.133-3.537
				c-1.998,0-3.108,1.643-3.108,3.537c0,1.921,1.111,3.562,3.108,3.562C106.116,35.453,107.229,33.812,107.229,31.891"/>
		</defs>
		<clipPath id="SVGID_16_">
			<use xlink:href="#SVGID_15_"  overflow="visible"/>
		</clipPath>
		<rect x="92.653" y="20.5" clip-path="url(#SVGID_16_)" fill="#35373C" width="22.91" height="22.808"/>
	</g>
	<g>
		<defs>
			<path id="SVGID_17_" d="M121.358,38.308v-1.869c-0.96,1.212-2.272,1.869-3.765,1.869c-3.056,0-5.405-2.324-5.405-6.417
				c0-3.966,2.3-6.391,5.405-6.391c1.44,0,2.805,0.606,3.765,1.869v-6.214h3.234v17.154H121.358z M121.358,34.063v-4.32
				c-0.53-0.809-1.692-1.39-2.755-1.39c-1.842,0-3.105,1.44-3.105,3.537c0,2.122,1.264,3.562,3.105,3.562
				C119.666,35.452,120.828,34.872,121.358,34.063z"/>
		</defs>
		<clipPath id="SVGID_18_">
			<use xlink:href="#SVGID_17_"  overflow="visible"/>
		</clipPath>
		<rect x="107.188" y="16.154" clip-path="url(#SVGID_18_)" fill="#35373C" width="22.404" height="27.154"/>
	</g>
	<g>
		<defs>
			<path id="SVGID_19_" d="M136.02,38.308v-1.844c-0.833,0.909-2.298,1.844-4.293,1.844c-2.679,0-3.941-1.465-3.941-3.84v-8.666
				h3.207v7.402c0,1.693,0.885,2.249,2.248,2.249c1.238,0,2.224-0.683,2.779-1.39v-8.262h3.209v12.506H136.02z"/>
		</defs>
		<clipPath id="SVGID_20_">
			<use xlink:href="#SVGID_19_"  overflow="visible"/>
		</clipPath>
		<rect x="122.785" y="20.802" clip-path="url(#SVGID_20_)" fill="#35373C" width="21.443" height="22.506"/>
	</g>
	<g>
		<defs>
			<path id="SVGID_21_" d="M141.638,31.891c0-3.738,2.728-6.391,6.468-6.391c2.501,0,4.017,1.086,4.825,2.198l-2.098,1.97
				c-0.581-0.858-1.465-1.313-2.576-1.313c-1.945,0-3.31,1.415-3.31,3.537s1.364,3.562,3.31,3.562c1.111,0,1.995-0.505,2.576-1.34
				l2.098,1.971c-0.809,1.112-2.324,2.224-4.825,2.224C144.365,38.308,141.638,35.655,141.638,31.891"/>
		</defs>
		<clipPath id="SVGID_22_">
			<use xlink:href="#SVGID_21_"  overflow="visible"/>
		</clipPath>
		<rect x="136.638" y="20.5" clip-path="url(#SVGID_22_)" fill="#35373C" width="21.293" height="22.808"/>
	</g>
	<g>
		<defs>
			<path id="SVGID_23_" d="M155.689,34.948v-6.342h-2.021v-2.805h2.021v-3.334h3.209v3.334h2.475v2.805h-2.475v5.482
				c0,0.783,0.403,1.364,1.11,1.364c0.479,0,0.937-0.178,1.111-0.379l0.683,2.45c-0.479,0.43-1.339,0.783-2.678,0.783
				C156.876,38.308,155.689,37.146,155.689,34.948"/>
		</defs>
		<clipPath id="SVGID_24_">
			<use xlink:href="#SVGID_23_"  overflow="visible"/>
		</clipPath>
		<rect x="148.669" y="17.467" clip-path="url(#SVGID_24_)" fill="#35373C" width="18.134" height="25.84"/>
	</g>
	<g>
		<defs>
			<polygon id="SVGID_25_" points="181.925,38.308 181.925,30.906 173.966,30.906 173.966,38.308 170.38,38.308 170.38,21.154 
				173.966,21.154 173.966,27.772 181.925,27.772 181.925,21.154 185.537,21.154 185.537,38.308 			"/>
		</defs>
		<clipPath id="SVGID_26_">
			<use xlink:href="#SVGID_25_"  overflow="visible"/>
		</clipPath>
		<rect x="165.38" y="16.154" clip-path="url(#SVGID_26_)" fill="#35373C" width="25.157" height="27.154"/>
	</g>
	<g>
		<defs>
			<path id="SVGID_27_" d="M197.018,38.308v-1.844c-0.833,0.909-2.298,1.844-4.294,1.844c-2.678,0-3.94-1.465-3.94-3.84v-8.666
				h3.206v7.402c0,1.693,0.885,2.249,2.249,2.249c1.238,0,2.224-0.683,2.779-1.39v-8.262h3.209v12.506H197.018z"/>
		</defs>
		<clipPath id="SVGID_28_">
			<use xlink:href="#SVGID_27_"  overflow="visible"/>
		</clipPath>
		<rect x="183.783" y="20.802" clip-path="url(#SVGID_28_)" fill="#35373C" width="21.443" height="22.506"/>
	</g>
	<g>
		<defs>
			<path id="SVGID_29_" d="M211.651,38.308v-7.68c0-1.693-0.883-2.274-2.249-2.274c-1.263,0-2.222,0.708-2.778,1.415v8.539h-3.207
				V25.802h3.207v1.566c0.783-0.909,2.3-1.869,4.271-1.869c2.702,0,3.99,1.515,3.99,3.89v8.918H211.651z"/>
		</defs>
		<clipPath id="SVGID_30_">
			<use xlink:href="#SVGID_29_"  overflow="visible"/>
		</clipPath>
		<rect x="198.417" y="20.5" clip-path="url(#SVGID_30_)" fill="#35373C" width="21.468" height="22.808"/>
	</g>
	<g>
		<defs>
			<path id="SVGID_31_" d="M218.709,34.948v-6.342h-2.021v-2.805h2.021v-3.334h3.209v3.334h2.475v2.805h-2.475v5.482
				c0,0.783,0.403,1.364,1.11,1.364c0.479,0,0.937-0.178,1.113-0.379l0.682,2.45c-0.48,0.43-1.34,0.783-2.679,0.783
				C219.896,38.308,218.709,37.146,218.709,34.948"/>
		</defs>
		<clipPath id="SVGID_32_">
			<use xlink:href="#SVGID_31_"  overflow="visible"/>
		</clipPath>
		<rect x="211.688" y="17.467" clip-path="url(#SVGID_32_)" fill="#35373C" width="18.135" height="25.84"/>
	</g>
</g>
</svg>
