<?xml version="1.0" encoding="utf-8"?>
<!-- Generator: Adobe Illustrator 16.0.4, SVG Export Plug-In . SVG Version: 6.00 Build 0)  -->
<!DOCTYPE svg PUBLIC "-//W3C//DTD SVG 1.1//EN" "http://www.w3.org/Graphics/SVG/1.1/DTD/svg11.dtd">
<svg version="1.1" id="Layer_1" xmlns="http://www.w3.org/2000/svg" xmlns:xlink="http://www.w3.org/1999/xlink" x="0px" y="0px"
	 width="230px" height="60px" viewBox="0 0 230 60" enable-background="new 0 0 230 60" xml:space="preserve">
<g>
	<rect x="166.396" y="12.5" fill="#35373C" width="34.369" height="35"/>
	<rect x="97.973" y="12.5" fill="#35373C" width="34.37" height="35"/>
	<rect x="29.234" y="12.5" fill="#35373C" width="34.369" height="35"/>
	<path fill="#35373C" d="M89.512,22.012v-3.994H72.905v3.994c0,0,5.482,0,5.781,0v15.767c-0.299,0-5.781,0-5.781,0v3.993h16.607
		v-3.993c0,0-6.007,0-6.306,0V22.012C83.505,22.012,89.512,22.012,89.512,22.012z"/>
	<path fill="#FFFFFF" d="M121.832,30.894c0,0,3.573-0.315,3.573-6.727c0-6.412-5.886-6.097-5.886-6.097h-13.664v23.544h4.625V32.47
		c0,0,4.73-0.104,7.462-0.104s2.732,3.993,2.732,3.993v5.15h4.729c0,0,0-0.525,0-5.466S121.832,30.894,121.832,30.894z
		 M116.997,28.581c-2.943,0-6.516,0.105-6.516,0.105V22.17h6.622c0,0,3.573-0.525,3.573,2.837
		C120.676,27.95,119.94,28.581,116.997,28.581z"/>
	<polygon fill="#35373C" points="138.648,18.07 138.648,21.959 141.907,21.959 141.907,37.83 138.648,37.83 138.648,41.719 
		158.725,41.719 158.725,34.047 154.729,34.047 154.729,37.83 146.216,37.83 146.216,31.419 152.522,31.419 152.522,27.53 
		146.216,27.53 146.216,21.959 154.414,21.959 154.414,25.743 158.725,25.743 158.725,18.07 	"/>
	<path fill="#FFFFFF" d="M194.774,33.101v-6.621c0-9.46-10.51-8.304-10.51-8.304h-10.195v23.858c0,0,3.889-0.104,12.507-0.104
		S194.774,33.101,194.774,33.101z M190.045,33.205c0,0-0.104,4.625-3.679,4.625c-3.573,0-7.462,0-7.462,0V22.064h7.146
		c0,0,3.994-0.315,3.994,5.045S190.045,33.205,190.045,33.205z"/>
	<polygon fill="#FFFFFF" points="32.177,18.176 36.907,18.176 40.166,36.148 44.369,18.176 49.52,18.281 53.724,36.464 
		56.877,18.176 61.396,18.176 56.562,41.719 50.676,41.719 46.892,24.587 42.793,41.824 37.012,41.824 	"/>
</g>
</svg>
