<?xml version="1.0" encoding="utf-8"?>
<!-- Generator: Adobe Illustrator 16.0.4, SVG Export Plug-In . SVG Version: 6.00 Build 0)  -->
<!DOCTYPE svg PUBLIC "-//W3C//DTD SVG 1.1//EN" "http://www.w3.org/Graphics/SVG/1.1/DTD/svg11.dtd">
<svg version="1.1" id="Layer_1" xmlns="http://www.w3.org/2000/svg" xmlns:xlink="http://www.w3.org/1999/xlink" x="0px" y="0px"
	 width="230px" height="60px" viewBox="0 0 230 60" enable-background="new 0 0 230 60" xml:space="preserve">
<g>
	<g opacity="0" enable-background="new    ">
		<g>
			<defs>
				<rect id="SVGID_1_" x="70" y="15" width="90" height="30"/>
			</defs>
			<clipPath id="SVGID_2_">
				<use xlink:href="#SVGID_1_"  overflow="visible"/>
			</clipPath>
			<g clip-path="url(#SVGID_2_)">
				<defs>
					<rect id="SVGID_3_" width="230" height="60"/>
				</defs>
				<clipPath id="SVGID_4_">
					<use xlink:href="#SVGID_3_"  overflow="visible"/>
				</clipPath>
				<g clip-path="url(#SVGID_4_)">
					<defs>
						<rect id="SVGID_5_" x="70" y="15" width="90" height="30"/>
					</defs>
					<clipPath id="SVGID_6_">
						<use xlink:href="#SVGID_5_"  overflow="visible"/>
					</clipPath>
					<rect x="-5" y="-5" clip-path="url(#SVGID_6_)" fill="#D8D9D8" width="240" height="70"/>
				</g>
			</g>
		</g>
	</g>
	<g>
		<defs>
			<path id="SVGID_7_" d="M70.399,25.85c0-1.077,0.632-1.746,1.636-1.746c1.004,0,1.637,0.669,1.637,1.746v1.675h0.074
				c0.744-1.525,2.566-3.421,4.463-3.421c1.153,0,1.823,0.742,1.823,1.672c0,0.931-0.669,1.525-2.046,1.785
				c-1.933,0.335-4.313,1.786-4.313,5.616v9.41c0,1.079-0.633,1.749-1.637,1.749c-1.004,0-1.636-0.67-1.636-1.749V25.85z"/>
		</defs>
		<clipPath id="SVGID_8_">
			<use xlink:href="#SVGID_7_"  overflow="visible"/>
		</clipPath>
		<rect x="65.399" y="19.104" clip-path="url(#SVGID_8_)" fill="#36383D" width="19.633" height="30.232"/>
	</g>
	<g>
		<defs>
			<polygon id="SVGID_9_" points="80.431,44.734 70,44.734 70,34.22 70,23.704 80.431,23.704 			"/>
		</defs>
		<clipPath id="SVGID_10_">
			<use xlink:href="#SVGID_9_"  overflow="visible"/>
		</clipPath>
		<g clip-path="url(#SVGID_10_)" enable-background="new    ">
			<g>
				<defs>
					<rect id="SVGID_11_" x="70" y="23" width="11" height="22"/>
				</defs>
				<clipPath id="SVGID_12_">
					<use xlink:href="#SVGID_11_"  overflow="visible"/>
				</clipPath>
				<g clip-path="url(#SVGID_12_)">
					<defs>
						<path id="SVGID_13_" d="M72.035,44.734c-1.236,0-2.035-0.843-2.035-2.147V25.85c0-1.303,0.799-2.146,2.035-2.146
							c1.237,0,2.036,0.843,2.036,2.146v0.387c1.013-1.362,2.577-2.532,4.138-2.532c1.308,0,2.222,0.852,2.222,2.071
							c0,0.789-0.412,1.808-2.371,2.178c-1.204,0.209-3.989,1.133-3.989,5.225v9.409C74.071,43.892,73.272,44.734,72.035,44.734
							 M72.035,24.502c-0.786,0-1.237,0.491-1.237,1.348v16.737c0,0.858,0.451,1.35,1.237,1.35c0.787,0,1.238-0.491,1.238-1.35
							v-9.409c0-4.829,3.556-5.82,4.646-6.01c1.536-0.29,1.715-0.935,1.715-1.393c0-0.773-0.559-1.273-1.424-1.273
							c-1.756,0-3.457,1.87-4.105,3.197l-0.109,0.224h-0.648l-0.074-0.398V25.85C73.273,24.993,72.822,24.502,72.035,24.502"/>
					</defs>
					<clipPath id="SVGID_14_">
						<use xlink:href="#SVGID_13_"  overflow="visible"/>
					</clipPath>
					<g clip-path="url(#SVGID_14_)">
						<defs>
							<rect id="SVGID_15_" x="70" y="23" width="11" height="22"/>
						</defs>
						<clipPath id="SVGID_16_">
							<use xlink:href="#SVGID_15_"  overflow="visible"/>
						</clipPath>
						<rect x="65" y="18.704" clip-path="url(#SVGID_16_)" fill="#36383D" width="20.431" height="31.03"/>
					</g>
				</g>
			</g>
		</g>
	</g>
	<g>
		<defs>
			<path id="SVGID_17_" d="M84.195,35.483c0,3.385,2.158,6.025,5.839,6.025c4.352,0,5.468-2.677,6.695-2.677
				c0.595,0,1.19,0.52,1.19,1.449c0,1.601-4.054,4.055-7.923,4.055c-6.323,0-9.075-4.872-9.075-10.117
				c0-5.355,3.347-10.115,8.889-10.115c5.393,0,8.517,4.872,8.517,9.632c0,1.152-0.408,1.748-1.821,1.748H84.195z M95.056,33.028
				c0-2.826-1.637-6.1-5.245-6.1c-4.054-0.148-5.505,3.087-5.616,6.1H95.056z"/>
		</defs>
		<clipPath id="SVGID_18_">
			<use xlink:href="#SVGID_17_"  overflow="visible"/>
		</clipPath>
		<rect x="75.922" y="19.104" clip-path="url(#SVGID_18_)" fill="#36383D" width="27.406" height="30.232"/>
	</g>
	<g>
		<defs>
			<rect id="SVGID_19_" x="80.523" y="23.704" width="18.204" height="21.03"/>
		</defs>
		<clipPath id="SVGID_20_">
			<use xlink:href="#SVGID_19_"  overflow="visible"/>
		</clipPath>
		<g clip-path="url(#SVGID_20_)" enable-background="new    ">
			<g>
				<defs>
					<rect id="SVGID_21_" x="80" y="23" width="19" height="22"/>
				</defs>
				<clipPath id="SVGID_22_">
					<use xlink:href="#SVGID_21_"  overflow="visible"/>
				</clipPath>
				<g clip-path="url(#SVGID_22_)">
					<defs>
						<path id="SVGID_23_" d="M89.998,44.734c-6.993,0-9.475-5.664-9.475-10.516c0-5.225,3.19-10.515,9.289-10.515
							c5.792,0,8.916,5.169,8.916,10.031c0,1.484-0.684,2.147-2.22,2.147H84.605c0.167,3.144,2.306,5.227,5.429,5.227
							c2.705,0,4.074-1.068,5.073-1.85c0.592-0.462,1.059-0.827,1.622-0.827c0.77,0,1.59,0.648,1.59,1.849
							C98.319,42.321,93.808,44.734,89.998,44.734z M89.812,24.502c-5.574,0-8.491,4.889-8.491,9.717
							c0,4.697,2.279,9.718,8.677,9.718c3.731,0,7.523-2.345,7.523-3.655c0-0.69-0.399-1.051-0.792-1.051
							c-0.288,0-0.66,0.29-1.13,0.658c-1.029,0.804-2.584,2.019-5.564,2.019c-3.731,0-6.238-2.581-6.238-6.424v-0.399h12.71
							c1.21,0,1.422-0.434,1.422-1.349C97.929,29.26,95.084,24.502,89.812,24.502z M95.455,33.427H83.781l0.016-0.414
							c0.119-3.207,1.755-6.63,6.029-6.482c3.69,0,5.629,3.27,5.629,6.498V33.427z M84.62,32.629h10.025
							c-0.141-2.267-1.479-5.301-4.833-5.301c-0.1-0.004-0.184-0.005-0.267-0.005C85.53,27.323,84.761,30.974,84.62,32.629z"/>
					</defs>
					<clipPath id="SVGID_24_">
						<use xlink:href="#SVGID_23_"  overflow="visible"/>
					</clipPath>
					<g clip-path="url(#SVGID_24_)">
						<defs>
							<rect id="SVGID_25_" x="80" y="23" width="19" height="22"/>
						</defs>
						<clipPath id="SVGID_26_">
							<use xlink:href="#SVGID_25_"  overflow="visible"/>
						</clipPath>
						<rect x="75.523" y="18.704" clip-path="url(#SVGID_26_)" fill="#36383D" width="28.204" height="31.03"/>
					</g>
				</g>
			</g>
		</g>
	</g>
	<g>
		<defs>
			<path id="SVGID_27_" d="M114.393,41.621h-0.075c-0.93,1.785-2.678,2.715-5.281,2.715c-5.356,0-8.443-4.872-8.443-10.117
				c0-5.243,3.087-10.115,8.443-10.115c2.603,0,4.426,1.449,5.281,2.677h0.075v-9.633c0-1.079,0.632-1.748,1.636-1.748
				s1.637,0.669,1.637,1.748v25.439c0,1.079-0.633,1.749-1.637,1.749s-1.636-0.67-1.636-1.749V41.621z M109.298,26.929
				c-4.018,0-5.432,3.942-5.432,7.29s1.414,7.29,5.432,7.29c4.016,0,5.43-3.942,5.43-7.29S113.314,26.929,109.298,26.929z"/>
		</defs>
		<clipPath id="SVGID_28_">
			<use xlink:href="#SVGID_27_"  overflow="visible"/>
		</clipPath>
		<rect x="95.594" y="10.399" clip-path="url(#SVGID_28_)" fill="#36383D" width="27.072" height="38.937"/>
	</g>
	<g>
		<defs>
			<path id="SVGID_29_" d="M116.029,44.734c-1.166,0-1.942-0.749-2.027-1.928c-1.091,1.281-2.755,1.928-4.965,1.928
				c-5.805,0-8.842-5.289-8.842-10.516c0-5.225,3.037-10.515,8.842-10.515c2.166,0,3.876,0.967,4.957,2.067v-8.624
				c0-1.305,0.799-2.147,2.035-2.147s2.035,0.843,2.035,2.147v25.439C118.064,43.892,117.266,44.734,116.029,44.734z
				 M114.077,41.222h0.64l0.075,0.399v0.966c0,0.858,0.45,1.35,1.237,1.35s1.237-0.491,1.237-1.35V17.147
				c0-0.858-0.45-1.35-1.237-1.35s-1.237,0.491-1.237,1.35v10.031h-0.607l-0.194-0.17c-0.845-1.212-2.59-2.507-4.954-2.507
				c-5.281,0-8.044,4.889-8.044,9.717c0,4.83,2.763,9.718,8.044,9.718c2.438,0,4.051-0.817,4.928-2.5L114.077,41.222z
				 M109.298,41.908c-4.303,0-5.831-4.143-5.831-7.689s1.528-7.688,5.831-7.688c4.302,0,5.829,4.142,5.829,7.688
				S113.6,41.908,109.298,41.908z M109.298,27.328c-3.714,0-5.033,3.712-5.033,6.891s1.319,6.892,5.033,6.892
				c3.713,0,5.031-3.713,5.031-6.892S113.011,27.328,109.298,27.328z"/>
		</defs>
		<clipPath id="SVGID_30_">
			<use xlink:href="#SVGID_29_"  overflow="visible"/>
		</clipPath>
		<rect x="95.195" y="10" clip-path="url(#SVGID_30_)" fill="#36383D" width="27.869" height="39.734"/>
	</g>
	<g>
		<defs>
			<path id="SVGID_31_" d="M135.068,41.621h-0.074c-0.93,1.785-2.678,2.715-5.281,2.715c-5.355,0-8.442-4.872-8.442-10.117
				c0-5.243,3.087-10.115,8.442-10.115c2.604,0,4.426,1.449,5.281,2.677h0.074v-9.633c0-1.079,0.633-1.748,1.638-1.748
				c1.004,0,1.636,0.669,1.636,1.748v25.439c0,1.079-0.632,1.749-1.636,1.749c-1.005,0-1.638-0.67-1.638-1.749V41.621z
				 M129.974,26.929c-4.019,0-5.431,3.942-5.431,7.29s1.412,7.29,5.431,7.29c4.017,0,5.431-3.942,5.431-7.29
				S133.99,26.929,129.974,26.929z"/>
		</defs>
		<clipPath id="SVGID_32_">
			<use xlink:href="#SVGID_31_"  overflow="visible"/>
		</clipPath>
		<rect x="116.271" y="10.399" clip-path="url(#SVGID_32_)" fill="#36383D" width="27.071" height="38.937"/>
	</g>
	<g>
		<defs>
			<path id="SVGID_33_" d="M136.706,44.734c-1.166,0-1.942-0.749-2.028-1.928c-1.09,1.281-2.755,1.928-4.965,1.928
				c-5.805,0-8.842-5.289-8.842-10.516c0-5.225,3.037-10.515,8.842-10.515c2.166,0,3.877,0.967,4.957,2.067v-8.624
				c0-1.305,0.8-2.147,2.036-2.147c1.235,0,2.034,0.843,2.034,2.147v25.439C138.74,43.892,137.941,44.734,136.706,44.734z
				 M134.753,41.222h0.64l0.075,0.399v0.966c0,0.858,0.452,1.35,1.238,1.35s1.237-0.491,1.237-1.35V17.147
				c0-0.858-0.451-1.35-1.237-1.35s-1.238,0.491-1.238,1.35v10.031h-0.606l-0.193-0.17c-0.846-1.212-2.591-2.507-4.955-2.507
				c-5.28,0-8.043,4.889-8.043,9.717c0,4.83,2.763,9.718,8.043,9.718c2.439,0,4.053-0.817,4.928-2.5L134.753,41.222z
				 M129.974,41.908c-4.303,0-5.83-4.143-5.83-7.689s1.527-7.688,5.83-7.688c4.302,0,5.829,4.142,5.829,7.688
				S134.275,41.908,129.974,41.908z M129.974,27.328c-3.714,0-5.032,3.712-5.032,6.891s1.318,6.892,5.032,6.892
				s5.031-3.713,5.031-6.892S133.688,27.328,129.974,27.328z"/>
		</defs>
		<clipPath id="SVGID_34_">
			<use xlink:href="#SVGID_33_"  overflow="visible"/>
		</clipPath>
		<rect x="115.871" y="10" clip-path="url(#SVGID_34_)" fill="#36383D" width="27.869" height="39.734"/>
	</g>
	<g>
		<defs>
			<path id="SVGID_35_" d="M144.438,16.608c1.116,0,2.01,0.893,2.01,2.01c0,1.114-0.894,2.008-2.01,2.008
				c-1.115,0-2.008-0.894-2.008-2.008C142.43,17.501,143.322,16.608,144.438,16.608 M144.438,15.013
				c-1.986,0-3.604,1.617-3.604,3.605c0,1.986,1.617,3.604,3.604,3.604c1.988,0,3.605-1.617,3.605-3.604
				C148.043,16.63,146.426,15.013,144.438,15.013"/>
		</defs>
		<clipPath id="SVGID_36_">
			<use xlink:href="#SVGID_35_"  overflow="visible"/>
		</clipPath>
		<rect x="135.834" y="10.013" clip-path="url(#SVGID_36_)" fill="#36383D" width="17.209" height="17.208"/>
	</g>
	<g>
		<defs>
			<path id="SVGID_37_" d="M146.075,42.587c0,1.079-0.632,1.749-1.638,1.749c-1.004,0-1.635-0.67-1.635-1.749V25.85
				c0-1.077,0.631-1.746,1.635-1.746c1.006,0,1.638,0.669,1.638,1.746V42.587z"/>
		</defs>
		<clipPath id="SVGID_38_">
			<use xlink:href="#SVGID_37_"  overflow="visible"/>
		</clipPath>
		<rect x="137.803" y="19.104" clip-path="url(#SVGID_38_)" fill="#36383D" width="13.272" height="30.232"/>
	</g>
	<g>
		<defs>
			<rect id="SVGID_39_" x="142.403" y="23.704" width="4.071" height="21.03"/>
		</defs>
		<clipPath id="SVGID_40_">
			<use xlink:href="#SVGID_39_"  overflow="visible"/>
		</clipPath>
		<g clip-path="url(#SVGID_40_)" enable-background="new    ">
			<g>
				<defs>
					<rect id="SVGID_41_" x="142" y="23" width="5" height="22"/>
				</defs>
				<clipPath id="SVGID_42_">
					<use xlink:href="#SVGID_41_"  overflow="visible"/>
				</clipPath>
				<g clip-path="url(#SVGID_42_)">
					<defs>
						<path id="SVGID_43_" d="M144.438,44.734c-1.235,0-2.034-0.843-2.034-2.147V25.85c0-1.303,0.799-2.146,2.034-2.146
							c1.238,0,2.037,0.843,2.037,2.146v16.737C146.475,43.892,145.676,44.734,144.438,44.734 M144.438,24.502
							c-0.785,0-1.236,0.491-1.236,1.348v16.737c0,0.858,0.451,1.35,1.236,1.35c0.787,0,1.238-0.491,1.238-1.35V25.85
							C145.676,24.993,145.225,24.502,144.438,24.502"/>
					</defs>
					<clipPath id="SVGID_44_">
						<use xlink:href="#SVGID_43_"  overflow="visible"/>
					</clipPath>
					<g clip-path="url(#SVGID_44_)">
						<defs>
							<rect id="SVGID_45_" x="142" y="23" width="5" height="22"/>
						</defs>
						<clipPath id="SVGID_46_">
							<use xlink:href="#SVGID_45_"  overflow="visible"/>
						</clipPath>
						<rect x="137.403" y="18.704" clip-path="url(#SVGID_46_)" fill="#36383D" width="14.071" height="31.03"/>
					</g>
				</g>
			</g>
		</g>
	</g>
	<g>
		<defs>
			<path id="SVGID_47_" d="M152.917,20.048c0-1.079,0.632-1.748,1.636-1.748s1.637,0.669,1.637,1.748v4.277h1.34
				c1.078,0,1.637,0.521,1.637,1.413c0,0.894-0.559,1.414-1.637,1.414h-1.34v15.435c0,1.079-0.633,1.749-1.637,1.749
				s-1.636-0.67-1.636-1.749V27.152h-1.339c-1.078,0-1.637-0.521-1.637-1.414c0-0.893,0.559-1.413,1.637-1.413h1.339V20.048z"/>
		</defs>
		<clipPath id="SVGID_48_">
			<use xlink:href="#SVGID_47_"  overflow="visible"/>
		</clipPath>
		<rect x="144.941" y="13.3" clip-path="url(#SVGID_48_)" fill="#36383D" width="19.225" height="36.036"/>
	</g>
	<g>
		<defs>
			<path id="SVGID_49_" d="M154.553,44.734c-1.234,0-2.035-0.843-2.035-2.147V27.552h-0.939c-1.275,0-2.036-0.679-2.036-1.813
				s0.761-1.812,2.036-1.812h0.939v-3.879c0-1.304,0.801-2.146,2.035-2.146c1.237,0,2.035,0.843,2.035,2.146v3.879h0.941
				c1.274,0,2.035,0.677,2.035,1.812s-0.761,1.813-2.035,1.813h-0.941v15.035C156.588,43.892,155.79,44.734,154.553,44.734z
				 M151.578,24.725c-1.238,0-1.238,0.763-1.238,1.014s0,1.016,1.238,1.016h1.738v15.833c0,0.858,0.451,1.35,1.236,1.35
				c0.787,0,1.238-0.491,1.238-1.35V26.754h1.738c1.238,0,1.238-0.765,1.238-1.016s0-1.014-1.238-1.014h-1.738v-4.677
				c0-0.857-0.451-1.349-1.238-1.349c-0.785,0-1.236,0.491-1.236,1.349v4.677H151.578z"/>
		</defs>
		<clipPath id="SVGID_50_">
			<use xlink:href="#SVGID_49_"  overflow="visible"/>
		</clipPath>
		<rect x="144.542" y="12.901" clip-path="url(#SVGID_50_)" fill="#36383D" width="20.022" height="36.833"/>
	</g>
</g>
</svg>
